<?xml version="1.0" standalone="no"?>
<!DOCTYPE svg PUBLIC "-//W3C//DTD SVG 20010904//EN"
 "http://www.w3.org/TR/2001/REC-SVG-20010904/DTD/svg10.dtd">
<svg version="1.0" xmlns="http://www.w3.org/2000/svg"
 width="512.000000pt" height="512.000000pt" viewBox="0 0 512.000000 512.000000"
 preserveAspectRatio="xMidYMid meet">
<metadata>
Created by potrace 1.14, written by Peter Selinger 2001-2017
</metadata>
<g transform="translate(0.000000,512.000000) scale(0.100000,-0.100000)"
fill="#000000" stroke="none">
<path d="M475 5113 c-218 -19 -394 -169 -456 -388 -21 -75 -21 -4255 0 -4330
54 -190 186 -322 376 -376 75 -21 4255 -21 4330 0 190 54 322 186 376 376 21
75 21 4255 0 4330 -52 185 -169 305 -360 373 -42 15 -227 17 -2136 18 -1149 0
-2108 -1 -2130 -3z m1350 -1281 c319 -65 551 -232 678 -487 33 -67 84 -222 76
-229 -6 -4 -483 -96 -502 -96 -9 0 -21 16 -28 38 -55 169 -226 314 -416 352
-90 18 -287 8 -382 -20 -354 -105 -529 -436 -500 -945 25 -416 202 -690 509
-786 65 -21 95 -24 225 -24 135 0 160 3 244 28 100 30 220 86 307 144 l54 36
0 168 0 169 -300 0 -300 0 0 220 0 220 560 0 560 0 0 -523 0 -523 -42 -35
c-113 -93 -289 -186 -473 -249 -220 -75 -361 -100 -586 -100 -710 -1 -1172
392 -1283 1092 -23 140 -21 384 4 526 50 296 161 523 344 708 179 180 379 281
652 329 119 21 468 13 599 -13z m3025 -232 l0 -220 -620 0 -620 0 0 -300 0
-300 535 0 535 0 0 -220 0 -220 -535 0 -535 0 0 -550 0 -550 -260 0 -260 0 0
1290 0 1290 880 0 880 0 0 -220z"/>
</g>
</svg>
